<?xml version="1.0" encoding="utf-8"?>
<!-- Generator: Adobe Illustrator 19.1.0, SVG Export Plug-In . SVG Version: 6.00 Build 0)  -->
<svg version="1.1" id="Layer_1" xmlns="http://www.w3.org/2000/svg" xmlns:xlink="http://www.w3.org/1999/xlink" x="0px" y="0px"
	 viewBox="0 0 55.3 81.4" style="enable-background:new 0 0 55.3 81.4;" xml:space="preserve">
<style type="text/css">
	.st0{clip-path:url(#SVGID_2_);fill:url(#SVGID_3_);}
	.st1{clip-path:url(#SVGID_5_);fill:#FFFFFF;}
	.st2{clip-path:url(#SVGID_7_);fill:#CF0A2C;}
	.st3{clip-path:url(#SVGID_7_);fill:#001F5B;}
	.st4{fill:#FFFFFF;}
	.st5{fill:#001F5B;}
	.st6{fill:#BC9A36;}
</style>
<g>
	<g>
		<defs>
			<path id="SVGID_1_" d="M22.1,18c0-3,2.5-5.5,5.5-5.5c3,0,5.5,2.5,5.5,5.5s-2.5,5.5-5.5,5.5C24.6,23.5,22.1,21.1,22.1,18 M21.3,18
				c0,3.5,2.8,6.3,6.3,6.3c3.5,0,6.3-2.8,6.3-6.3s-2.8-6.3-6.3-6.3C24.1,11.7,21.3,14.5,21.3,18"/>
		</defs>
		<clipPath id="SVGID_2_">
			<use xlink:href="#SVGID_1_"  style="overflow:visible;"/>
		</clipPath>
		
			<linearGradient id="SVGID_3_" gradientUnits="userSpaceOnUse" x1="-388.1161" y1="337.3933" x2="-387.8596" y2="337.3933" gradientTransform="matrix(49.484 0 0 -49.484 19226.8418 16713.5957)">
			<stop  offset="0" style="stop-color:#F3EFA3"/>
			<stop  offset="0.174" style="stop-color:#F3EFA3"/>
			<stop  offset="0.1869" style="stop-color:#F2EDA1"/>
			<stop  offset="0.4201" style="stop-color:#DCCA84"/>
			<stop  offset="0.64" style="stop-color:#CDB16F"/>
			<stop  offset="0.8394" style="stop-color:#C3A162"/>
			<stop  offset="1" style="stop-color:#C09C5E"/>
		</linearGradient>
		<rect x="21.3" y="11.7" class="st0" width="12.7" height="12.7"/>
	</g>
	<g>
		<defs>
			<path id="SVGID_4_" d="M4,20.8v30.1c0,5.4,3.8,11.1,11.3,17c5.9,4.7,11.9,7.6,11.9,7.6l0.5,0.2l0.5-0.2c0,0,6-2.9,11.9-7.6
				c7.5-5.9,11.3-11.6,11.3-17V20.8H4z"/>
		</defs>
		<clipPath id="SVGID_5_">
			<use xlink:href="#SVGID_4_"  style="overflow:visible;"/>
		</clipPath>
		<polygon class="st1" points="5,81.4 5,19.8 50.1,19.6 50.1,81.2 		"/>
	</g>
	<g>
		<defs>
			<path id="SVGID_6_" d="M4,20.8v30.1c0,5.4,3.8,11.1,11.3,17c5.9,4.7,11.9,7.6,11.9,7.6l0.5,0.2l0.5-0.2c0,0,6-2.9,11.9-7.6
				c7.5-5.9,11.3-11.6,11.3-17V20.8H4z"/>
		</defs>
		<clipPath id="SVGID_7_">
			<use xlink:href="#SVGID_6_"  style="overflow:visible;"/>
		</clipPath>
		<rect x="33.2" y="19.9" class="st2" width="16.7" height="16.7"/>
		<rect x="5.4" y="47.7" class="st2" width="16.7" height="33.4"/>
		<polygon class="st3" points="30.4,81.1 30.4,45 49.9,45 49.9,39.4 30.4,39.4 30.4,19.9 24.8,19.9 24.8,39.4 5.4,39.4 5.4,45 
			24.8,45 24.8,81.1 		"/>
		<rect x="5.4" y="19.9" class="st2" width="16.7" height="16.7"/>
		<rect x="33.2" y="47.7" class="st2" width="16.7" height="33.4"/>
	</g>
	<path class="st4" d="M49.9,22.2v28.7c0,4.9-3.6,10.3-10.7,15.9c-5.3,4.2-10.6,6.9-11.5,7.3c-0.9-0.5-6.2-3.2-11.5-7.3
		C9,61.2,5.4,55.8,5.4,50.9V22.2H49.9 M51.3,20.8H4v30.1c0,5.4,3.8,11.1,11.3,17c5.9,4.7,11.9,7.6,11.9,7.6l0.5,0.2l0.5-0.2
		c0,0,6-2.9,11.9-7.6c7.5-5.9,11.3-11.6,11.3-17V20.8z"/>
	<path class="st4" d="M27.6,23.7c-3.1,0-5.7-2.6-5.7-5.7c0-3.1,2.6-5.7,5.7-5.7c3.1,0,5.7,2.6,5.7,5.7
		C33.3,21.2,30.8,23.7,27.6,23.7"/>
	<path class="st4" d="M20.7,18c0,3.8,3.1,6.9,6.9,6.9c3.8,0,6.9-3.1,6.9-6.9c0-3.8-3.1-6.9-6.9-6.9C23.8,11.1,20.7,14.2,20.7,18"/>
	<polygon class="st5" points="21.5,4.3 22.3,4.3 22.3,10.3 21.3,10.3 20.4,6.2 20.4,10.3 19.5,10.3 19.5,4.3 20.6,4.3 21.5,8 	"/>
	<path class="st5" d="M24.7,10.4h-0.5c-0.8,0-1.1-0.4-1.1-1.1V5.3c0-0.8,0.4-1.1,1.1-1.1h0.5c0.8,0,1.1,0.4,1.1,1.1v3.9
		C25.9,10,25.5,10.4,24.7,10.4 M24.6,5h-0.2C24.2,5,24,5.1,24,5.4v3.8c0,0.2,0.1,0.4,0.4,0.4h0.2c0.2,0,0.3-0.1,0.3-0.4V5.4
		C24.9,5.1,24.8,5,24.6,5"/>
	<path class="st5" d="M29.3,8.3v2.1h-0.9V8.3c0-0.3-0.1-0.4-0.4-0.4h-0.4v2.4h-0.9V4.3h1.5c0.8,0,1.1,0.4,1.1,1.1v1.1
		c0,0.5-0.2,0.8-0.5,0.9C29.2,7.6,29.3,7.8,29.3,8.3 M28.1,5.1h-0.5v2H28c0.3,0,0.4-0.1,0.4-0.4V5.4C28.4,5.2,28.3,5.1,28.1,5.1"/>
	<path class="st5" d="M31.5,7.8V7h1.4v2.2c0,0.8-0.4,1.1-1.1,1.1h-0.5c-0.8,0-1.1-0.4-1.1-1.1V5.3c0-0.8,0.4-1.1,1.1-1.1h0.5
		c0.8,0,1.1,0.4,1.1,1.1v1H32V5.4C32,5.1,31.8,5,31.6,5h-0.2c-0.2,0-0.4,0.1-0.4,0.4v3.8c0,0.2,0.1,0.4,0.4,0.4h0.2
		c0.2,0,0.4-0.1,0.4-0.4V7.8H31.5z"/>
	<polygon class="st5" points="35.7,4.3 35.7,5.1 34.6,5.1 34.6,6.8 35.7,6.8 35.7,7.7 34.6,7.7 34.6,9.5 35.8,9.5 35.8,10.3 
		33.7,10.3 33.7,4.3 	"/>
	<path class="st5" d="M31.8,15.1c-0.9-1.2-2.3-2.1-4-2.1v10.1c0.2,0,0.7-0.1,1.1-0.2v-4.4h0.6l1.1-1.1h-1.7v-3c1,0.4,1.7,1,2,1.6
		L31.8,15.1z"/>
	<path class="st5" d="M32.7,18.5c0-0.5,0-0.9,0-1.1h-1.4l-1.1,1.1v4c0.6-0.4,1-0.7,1.1-0.9v-1.2l0.9,0c0.2-0.4,0.4-0.9,0.4-1.1
		l-1.3,0v-0.8H32.7z"/>
	<path class="st5" d="M24,16.6l0.4,0.6l0,0l2.5,4.1h0.3l0-8.4c-0.3,0-0.8,0.1-1.1,0.2l0,4.6L24,14.5c-0.9,0.9-1.4,2.2-1.4,3.5
		c0,0.9,0.3,1.8,0.7,2.5h0c0.8,1.4,2.3,2.4,4,2.5v-1.2c-1.2-0.1-2.3-0.8-2.9-1.9C23.3,18.4,23.9,16.9,24,16.6"/>
	<path class="st6" d="M54.2,7.4l-0.4-0.1l0,1.5v42.1c0,6.2-4.1,12.5-12.2,18.9c-6.2,4.9-12.4,7.9-12.4,7.9l-1.3,0.6l-0.2,0.1
		l-0.2-0.1l-1.3-0.6c-0.1,0-6.3-3-12.4-7.9C5.6,63.4,1.5,57,1.5,50.9V8.8l0-1.5L0,7.7v1.1v42.1C0,57.5,4.3,64.3,12.8,71
		c6.3,5,12.7,8.1,12.8,8.1l1.3,0.6l0.8,0.4l0.8-0.4l1.3-0.6c0.1,0,6.5-3.1,12.8-8.1c8.5-6.7,12.8-13.5,12.8-20.1V8.8V7.7L54.2,7.4z"
		/>
	<path class="st6" d="M42,7.7c-0.3,0-0.6,0.2-0.9,0.3c0-0.1,0-0.3,0-0.3c-0.2,0.1-0.3,0.3-0.4,0.5c0.3,0.1,0.4,0.2,0.5,0.3
		C41.4,8.1,41.9,7.8,42,7.7"/>
	<path class="st6" d="M14.1,8.5c0.1,0,0.2-0.2,0.5-0.3c0-0.2-0.2-0.4-0.4-0.5c0,0,0,0.2,0,0.3c-0.3-0.2-0.5-0.3-0.9-0.3
		C13.4,7.8,13.9,8.1,14.1,8.5"/>
	<path class="st6" d="M14,69.4c6.1,4.8,12.3,7.8,12.3,7.8l1.3,0.6l1.3-0.6c0.1,0,6.1-2.9,12.3-7.8c8-6.3,12-12.5,12-18.5V3.4
		l-0.7-0.2C52.4,3.2,40.8,0,27.6,0C14.5,0,2.8,3.2,2.7,3.2L2,3.4v47.5C2,56.9,6.1,63.1,14,69.4 M48.7,19.6c1.3-1,1.3-1.7,1.6-2.8
		c-0.3,0.5-1.2,1.2-1.8,1.5c0.1-0.4,0.7-0.9,2.1-2.5c0.3-0.3,0.5-0.6,0.7-0.9v4.8h-1.4c0.1-0.3,0.3-0.7,0.5-1.2
		C50.2,18.8,49.5,19.5,48.7,19.6 M27.6,2c11,0,21,2.3,23.7,3v6.6C51,11.3,50.7,11,50.2,11c-1.2-0.1-1.6,1-1.7,2
		c-0.7,0.4-0.8,1.4-0.9,2.2c0-0.2,0.6-0.8,0.8-1.1c-0.2,1.1-0.7,2.2-1.6,2.7c1.7-0.3,2.4-1.3,2.6-2.3c0,0.2,0.2,0.4,0.4,0.5
		c0,0,0-0.3,0.1-0.8c0.1-0.7-0.3-1.1-0.6-1.4c0-1.6,1.3-1.5,1.9-0.5c0.6,1-0.2,2.3-0.8,3c-0.5,0.7-1.9,1.9-2.8,2.9
		c-0.5,0.6-0.6,1.1-0.5,1.6h-1.5c-0.2-0.9-0.2-1.7-0.1-2.3c0.1,0,0.3,0.2,0.6,0.2c-0.4-0.4-0.2-1.4,0.2-2c0.4-0.6,0.7-1.5,0.9-2.1
		c0,0,0.2,0.2,0.4,0.3c-0.1-0.4-0.1-3.3-0.1-4.3c0-1-1.8-2.5-2.3-2.8c0-0.1,0-0.3-0.1-0.3c-2.2-0.2-3.6,0.4-4.2,0.6
		c-0.6,0.2-0.5,0.6-0.6,0.7c-0.1,0.1-1.3,0.8-1.5,1c-0.3,0.2,0.1,0.6,0.2,0.9c0.2,0.3,0.3,0.2,0.6,0.2c0.1,0.2,0.4,0.4,0.7,0.5
		C40.1,10.2,40,10,40,9.8c0.7,0,1.2,0.3,1.3,0.8c-1.4-0.3-2.1,0.1-2.6,0.4c-0.5,0.3-0.9,0.2-1.5-0.1c0.6,1.1,1.2,0.9,1.4,0.8
		c0.3-0.1,0.8-0.5,1.3-0.7c-0.1,0.5,0.1,0.8,0.3,1.1c0.1-0.2,0.6-0.6,1.2-0.5c0.1,0.6-0.3,0.8-1.2,1.4c-0.9,0.6-1.6,1.3-1.8,1.6
		c-0.1,0.2-0.5,2.1-0.5,3c0,0,1.2-0.4,1.3-0.6c0.2-0.4,0.3-1.5,0.5-1.7c0.1-0.1,0.9-0.6,1.4-0.9c0,0.4-0.4,0.7-0.9,1.1
		c-0.4,0.3-0.3,1.6-0.7,1.9c-0.5,0.3-3.2,1.2-3.9,1.3c-0.1-0.1-0.5-1.4-0.7-1.8c-0.1-0.3-0.6-0.3-1-0.2c-0.1-0.3-0.1-0.5-0.2-0.8
		c0,0,0,0,0,0c0.3,0,0.5-0.1,0.7-0.1c0.2,0,1.3,0.5,1.5,1.2c0.3-0.1,1.3-0.1,1.7,0c0-0.8,0.2-1.7,0.4-2.3c-0.8-0.1-2.9-0.3-3.2-0.5
		c-0.3-0.2-1.7-1.5-2.2-1.6c-0.4-0.3-0.7-0.4-1-0.1c-0.1,0.1-0.2,0.2-0.2,0.3c-1.1-0.8-2.3-1.2-3.7-1.2c-1.4,0-2.7,0.5-3.7,1.2
		c0-0.1-0.1-0.1-0.2-0.3c-0.3-0.3-0.6-0.2-1,0.1c-0.4,0.2-1.9,1.4-2.2,1.6c-0.3,0.2-2.4,0.4-3.2,0.5c0.2,0.6,0.3,1.5,0.4,2.3
		c0.4-0.1,1.4-0.2,1.7,0c0.2-0.8,1.3-1.2,1.5-1.2c0.2,0,0.4,0.1,0.7,0.1c0,0,0,0,0,0c-0.1,0.3-0.2,0.5-0.2,0.8
		c-0.3-0.1-0.8-0.1-1,0.2c-0.2,0.4-0.7,1.7-0.7,1.8c-0.7-0.1-3.3-1-3.9-1.3c-0.5-0.3-0.3-1.6-0.7-1.9c-0.5-0.3-0.9-0.7-0.9-1.1
		c0.6,0.3,1.3,0.8,1.4,0.9c0.2,0.2,0.3,1.3,0.5,1.7c0.1,0.2,1.3,0.6,1.3,0.6c0-0.9-0.4-2.8-0.5-3c-0.3-0.4-1-1-1.8-1.6
		c-0.9-0.6-1.2-0.8-1.2-1.4c0.6-0.1,1,0.3,1.2,0.5c0.2-0.3,0.4-0.6,0.3-1.1c0.5,0.2,1,0.5,1.3,0.7c0.3,0.1,0.8,0.3,1.4-0.8
		c-0.6,0.3-0.9,0.4-1.5,0.1c-0.5-0.3-1.2-0.7-2.6-0.4c0.1-0.5,0.6-0.8,1.3-0.8c0,0.1-0.1,0.4-0.1,0.5c0.3,0,0.6-0.3,0.7-0.5
		c0.2,0,0.4,0.1,0.6-0.2c0.2-0.3,0.5-0.7,0.2-0.9c-0.3-0.2-1.4-0.9-1.5-1C15,7.6,15,7.3,14.5,7c-0.6-0.2-2-0.9-4.2-0.6
		c-0.1,0-0.1,0.2-0.1,0.3C9.7,7,7.9,8.5,7.9,9.5c0,1,0,3.9-0.1,4.3c0.2,0,0.4-0.2,0.4-0.3C8.3,14.1,8.7,15,9,15.6
		c0.4,0.6,0.5,1.6,0.2,2c0.3,0,0.6-0.2,0.6-0.2c0.1,0.7,0.2,1.4-0.1,2.3H8.3c0.1-0.5,0-1-0.5-1.6c-0.9-1.1-2.3-2.2-2.8-2.9
		c-0.5-0.7-1.4-2-0.8-3c0.6-1,1.9-1.1,1.9,0.5c-0.4,0.3-0.8,0.7-0.6,1.4C5.5,14.7,5.5,15,5.5,15c0.1-0.1,0.4-0.3,0.4-0.5
		c0.2,1,0.9,2,2.6,2.3c-0.8-0.6-1.4-1.7-1.6-2.7c0.2,0.3,0.8,1,0.8,1.1c-0.1-0.8-0.2-1.7-0.9-2.2c-0.1-1-0.5-2.1-1.7-2
		C4.6,11,4.2,11.3,4,11.5V4.9C6.7,4.2,16.6,2,27.6,2 M11.4,10.3c-0.1-0.7,0.8-2,1.7-2.7c-0.6-0.2-1.5-0.2-1.6-0.2
		c-0.1,0.1-0.2,0.5-0.2,0.6c0,0.1-0.1,0.3-0.1,0.2c-0.2-0.2-0.4-0.8-0.4-1.3c1.7-0.1,3,0.4,3.4,0.5c0.4,0.2,0.4,0.3,0.4,0.4
		c0,0.1,0,0.2,0.2,0.3c0.2,0.1,1,0.5,1.4,0.8c0.1,0.1,0.1,0.2,0,0.3c0,0-0.1,0-0.1,0c-0.1-0.1-0.3-0.2-0.4-0.2
		c0,0.1,0.1,0.3,0.2,0.4c0.1,0.1,0,0.1,0,0.2c0,0,0,0.1-0.1,0c-0.1,0-0.5-0.1-0.8-0.1c-0.3,0-0.8,0-1.4,0.4
		c-0.1-0.3,0.4-0.7,0.7-0.9c-0.3-0.1-0.7-0.2-1.1-0.1c-0.5,0-0.6,0.2-0.8,0.4c-0.6,0.6-0.2,1.2-0.1,1.7c-0.3-0.2-0.4-0.5-0.5-0.7
		c-0.5,0.6,0.2,1.3,0.6,1.8c0.4,0.5,0.2,1,0.1,1.7c-0.1,0-0.2-0.2-0.2-0.5c0-0.4,0-0.5-0.1-0.7c-0.1-0.3-1-1.1-1.4-1.7
		c-0.4-0.6-0.2-1.4,0-1.7C11.1,9,10.7,9.4,11.4,10.3 M21,19.2c-0.1,0-0.2,0.1-0.3,0.2c-0.1,0.2-0.2,0-0.1-0.1c0-0.1,0.1-0.5,0.4-0.5
		c0.3,0,0.4,0,0.4,0.1c0,0,0,0.1,0,0.1C21.4,19.2,21.2,19.2,21,19.2 M21.3,17.4c-0.1,0-0.2,0-0.3,0c-0.1,0-0.3,0-0.3-0.2
		c0-0.2,0.3-0.2,0.5-0.2c0.1,0,0.1,0,0.2,0.1C21.3,17.3,21.3,17.3,21.3,17.4 M21.3,18c0,0.1,0,0.1,0,0.2c-0.1,0.1-0.3,0-0.4,0
		c-0.1,0-0.3,0.1-0.4,0.3c-0.3,0.2-0.1-0.2,0-0.5C20.7,17.8,21.2,17.8,21.3,18 M22.1,14.6c-0.1-0.1-0.3-0.3-0.4-0.3
		c-0.1,0-0.3,0.1-0.3,0c0.1-0.1,0.3-0.3,0.5-0.3c0.1,0,0.2,0.1,0.3,0.2c0.1,0.1,0.1,0.2,0.1,0.3c0,0.1-0.1,0.1-0.1,0.2
		C22.2,14.7,22.2,14.6,22.1,14.6 M23.4,13.3C23.4,13.3,23.4,13.3,23.4,13.3c-0.2-0.2-0.3-0.3-0.4-0.4c-0.1-0.1-0.1-0.1,0.1-0.2
		c0.2-0.1,0.3,0,0.4,0.2c0,0.1,0.1,0.1,0.1,0.2C23.5,13.2,23.5,13.2,23.4,13.3 M23,13.5c0,0.1,0.1,0.1,0.1,0.2
		c-0.1,0.1-0.2,0.2-0.2,0.2c0,0-0.1-0.1-0.1-0.2c-0.1-0.2-0.2-0.2-0.4-0.2c-0.2,0-0.2,0.1-0.3,0.1c-0.1,0,0.3-0.3,0.5-0.4
		C22.7,13.1,22.9,13.3,23,13.5 M22.1,18.2C22.1,18.2,22.1,18.2,22.1,18.2C22.1,18.2,22.1,18.2,22.1,18.2c0-0.1,0-0.1,0-0.2
		c0-1.5,0.6-2.9,1.6-3.9c0,0,0,0,0,0c0,0,0,0,0,0c1-1,2.4-1.6,3.9-1.6c1.5,0,2.9,0.6,3.9,1.6c0,0,0,0,0,0c0,0,0,0,0,0
		c1,1,1.6,2.4,1.6,3.9c0,0,0,0.1,0,0.1c0,0,0,0,0,0c0,0,0,0,0,0c-0.1,3-2.5,5.4-5.6,5.4C24.6,23.6,22.2,21.2,22.1,18.2 M33.2,14.6
		c-0.1,0.1-0.1,0.1-0.1,0.1c0-0.1-0.1-0.1-0.1-0.2c0-0.1,0-0.2,0.1-0.3c0.1-0.1,0.2-0.2,0.3-0.2c0.2,0,0.4,0.2,0.5,0.3
		c0.1,0.1-0.1,0-0.3,0C33.4,14.3,33.3,14.4,33.2,14.6 M33.3,13.6c-0.1,0-0.2-0.1-0.3-0.1c-0.2,0-0.2,0-0.4,0.2
		c-0.1,0.1-0.1,0.1-0.1,0.2c-0.1-0.1-0.1-0.2-0.2-0.2c0-0.1,0-0.1,0.1-0.2c0.1-0.1,0.3-0.3,0.5-0.2C33.1,13.3,33.4,13.6,33.3,13.6
		 M32.3,12.9C32.2,13,32,13.1,32,13.2c0,0,0,0.1-0.1,0.1c-0.1-0.1-0.1-0.1-0.2-0.2c0-0.1,0-0.1,0.1-0.2c0.1-0.1,0.3-0.3,0.4-0.2
		C32.3,12.8,32.4,12.9,32.3,12.9 M34,18c0.1-0.3,0.6-0.2,0.8,0c0.1,0.3,0.3,0.7,0,0.5c-0.1-0.2-0.2-0.3-0.4-0.3c-0.1,0-0.3,0-0.4,0
		C34,18.2,34,18.1,34,18 M34.3,17.4c-0.1,0-0.3,0-0.3,0c0-0.1,0-0.2,0-0.3c0,0,0.1-0.1,0.2-0.1c0.2,0,0.4,0,0.5,0.2
		C34.6,17.5,34.4,17.4,34.3,17.4 M33.9,19c0.1-0.1,0.2-0.2,0.4-0.1c0.3,0,0.4,0.4,0.4,0.5c0,0.1,0,0.3-0.1,0.1
		c-0.1-0.2-0.2-0.2-0.3-0.2C34.1,19.2,33.9,19.2,33.9,19C33.9,19,33.9,19,33.9,19 M39.5,8.9c0,0-0.3,0.1-0.4,0.2c0,0-0.1,0-0.1,0
		c-0.1-0.1-0.1-0.2,0-0.3c0.4-0.2,1.1-0.6,1.4-0.8c0.2-0.1,0.2-0.2,0.2-0.3c0-0.1,0.1-0.2,0.4-0.4c0.4-0.2,1.7-0.6,3.4-0.5
		c0,0.5-0.2,1.1-0.4,1.3C44.1,8.3,44,8.1,44,8c0-0.1,0-0.5-0.2-0.6c-0.1,0-1,0-1.6,0.2c0.8,0.8,1.8,2.1,1.7,2.7
		c0.6-0.9,0.2-1.4,0.4-1.5c0.3,0.3,0.4,1.1,0,1.7c-0.4,0.6-1.2,1.5-1.4,1.7c-0.1,0.3-0.1,0.4-0.1,0.7c0,0.3-0.1,0.5-0.2,0.5
		c-0.1-0.7-0.2-1.2,0.1-1.7c0.4-0.5,1-1.2,0.6-1.8c-0.1,0.3-0.2,0.6-0.5,0.7c0.1-0.4,0.5-1-0.1-1.7c-0.2-0.2-0.3-0.4-0.8-0.4
		c-0.4,0-0.8,0-1.1,0.1c0.3,0.2,0.8,0.6,0.7,0.9c-0.6-0.4-1.1-0.4-1.4-0.4c-0.3,0-0.7,0.1-0.8,0.1c-0.1,0-0.1,0-0.1,0
		c0,0-0.1-0.1,0-0.2C39.4,9.2,39.5,9,39.5,8.9 M4,14.9c0.2,0.3,0.4,0.6,0.7,0.9c1.4,1.6,2,2.1,2.1,2.5c-0.6-0.3-1.5-1-1.8-1.5
		c0.3,1.1,0.3,1.8,1.6,2.8c-0.7-0.1-1.5-0.9-1.6-1.1c0.2,0.5,0.3,0.8,0.5,1.2H4V14.9z M4,20.8h11.4c1.2,0.4,2,0.6,2.5,1.1
		c1-0.6,2-1,2.4-1c0.4,0.1,1.1,0.2,1.4,0c0.1-0.1,0.1-0.1,0.2-0.2h0c1,2.1,3.2,3.6,5.7,3.6c2.5,0,4.7-1.5,5.7-3.6h0
		c0,0.1,0.1,0.1,0.2,0.2c0.3,0.2,1,0,1.4,0c0.4-0.1,1.5,0.3,2.4,1c0.5-0.4,1.3-0.7,2.5-1.1h11.4v30.1c0,5.4-3.8,11.1-11.3,17
		c-5.9,4.7-11.9,7.6-11.9,7.6l-0.5,0.2l-0.5-0.2c-0.1,0-6-2.9-11.9-7.6C7.8,61.9,4,56.2,4,50.9V20.8z"/>
</g>
</svg>
