<?xml version="1.0" encoding="utf-8"?>
<!-- Generator: Adobe Illustrator 19.1.0, SVG Export Plug-In . SVG Version: 6.00 Build 0)  -->
<svg version="1.1" id="Layer_1" xmlns="http://www.w3.org/2000/svg" xmlns:xlink="http://www.w3.org/1999/xlink" x="0px" y="0px"
	 viewBox="0 0 54.4 78.7" style="enable-background:new 0 0 54.4 78.7;" xml:space="preserve">
<style type="text/css">
	.st0{fill:#FFFFFF;}
	.st1{fill:#001F5B;}
	.st2{clip-path:url(#SVGID_2_);}
	.st3{clip-path:url(#SVGID_4_);}
	.st4{clip-path:url(#SVGID_6_);}
	.st5{fill:#D31F37;}
	.st6{clip-path:url(#SVGID_8_);}
	.st7{clip-path:url(#SVGID_10_);}
	.st8{clip-path:url(#SVGID_12_);}
	.st9{clip-path:url(#SVGID_14_);}
	.st10{clip-path:url(#SVGID_16_);}
	.st11{fill:#B1182F;}
</style>
<g>
	<g>
		<path class="st0" d="M52.2,6.9l0.1-3.2l-0.4-0.1l-0.7-0.2c-0.1,0-11.4-3.1-24.1-3.1C14.4,0.4,3.2,3.5,3,3.5L2.3,3.7L2.1,3.8l0,0.4
			l0,2.8L1.1,7.3L0,49.8C0,56.4,4.2,63,12.5,69.5c6.1,4.8,12.3,7.8,12.4,7.8l1.2,0.6l0.2,0.1l0.6,0.3l0.2,0.1l0.2-0.1l0.6-0.3
			l0.2-0.1l1.2-0.6c0.1,0,6.3-3,12.4-7.8C50,63,54.2,56.4,54.2,49.8L53.3,7.3L52.2,6.9z"/>
	</g>
	<g>
		<path class="st1" d="M53.3,7.3l-0.4-0.1l0,1.5V50c0,6.1-4,12.3-12,18.6c-6.1,4.8-12.2,7.7-12.2,7.8L27.4,77l-0.2,0.1L27,77
			l-1.3-0.6c-0.1,0-6.2-3-12.2-7.8c-8-6.3-12-12.6-12-18.6V8.7l0-1.5L0,7.6v1.1V50c0,6.5,4.2,13.2,12.6,19.8
			c6.2,4.9,12.5,7.9,12.5,7.9l1.3,0.6l0.8,0.4l0.8-0.4l1.3-0.6c0.1,0,6.3-3.1,12.5-7.9c8.3-6.6,12.6-13.2,12.6-19.8V8.7V7.6
			L53.3,7.3z"/>
	</g>
	<g>
		<path class="st1" d="M51.7,3.2C51.6,3.1,40.1,0,27.2,0C14.3,0,2.8,3.1,2.7,3.2L2,3.4V50c0,5.9,4,12,11.8,18.2
			c6,4.8,12.1,7.7,12.1,7.7l1.3,0.6l1.3-0.6c0.1,0,6-2.9,12.1-7.7C48.4,62,52.4,55.9,52.4,50V3.4L51.7,3.2z M50.5,50
			c0,5.3-3.7,10.9-11.1,16.7c-5.8,4.6-11.7,7.4-11.7,7.4l-0.5,0.2l-0.5-0.2c-0.1,0-5.9-2.8-11.7-7.5c-0.5-0.4-0.9-0.7-1.3-1.1
			C7.2,60.2,3.9,55,3.9,50l0-45.2c2.7-0.7,12.5-2.9,23.3-2.9c10.8,0,20.6,2.2,23.3,2.9V50z"/>
	</g>
	<g>
		<defs>
			<path id="SVGID_1_" d="M5.3,50c0,4.9,3.5,10.2,10.4,15.6c5.5,4.3,10.9,7,11,7l0.4,0.2l0.4-0.2c0,0,5.5-2.7,11-7
				c6.9-5.4,10.4-10.7,10.4-15.6V15.1l-43.6,0V50z"/>
		</defs>
		<clipPath id="SVGID_2_">
			<use xlink:href="#SVGID_1_"  style="overflow:visible;"/>
		</clipPath>
		<g class="st2">
			<defs>
				<rect id="SVGID_3_" x="-25.5" y="-12.4" width="79" height="78.1"/>
			</defs>
			<clipPath id="SVGID_4_">
				<use xlink:href="#SVGID_3_"  style="overflow:visible;"/>
			</clipPath>
			<g class="st3">
				<defs>
					<rect id="SVGID_5_" x="-25.5" y="-12.4" width="79" height="78.1"/>
				</defs>
				<clipPath id="SVGID_6_">
					<use xlink:href="#SVGID_5_"  style="overflow:visible;"/>
				</clipPath>
				<g class="st4">
					<polygon class="st5" points="53.5,8.9 -3.4,65.7 -25.5,44.5 31.3,-12.4 					"/>
				</g>
			</g>
		</g>
		<g class="st2">
			<defs>
				<rect id="SVGID_7_" x="3.9" y="16.3" width="72.8" height="72.7"/>
			</defs>
			<clipPath id="SVGID_8_">
				<use xlink:href="#SVGID_7_"  style="overflow:visible;"/>
			</clipPath>
			<g class="st6">
				<defs>
					<rect id="SVGID_9_" x="3.9" y="16.3" width="72.8" height="72.7"/>
				</defs>
				<clipPath id="SVGID_10_">
					<use xlink:href="#SVGID_9_"  style="overflow:visible;"/>
				</clipPath>
				<g class="st7">
					<polygon class="st5" points="76.7,32.3 19.9,89 3.9,73.1 60.7,16.3 					"/>
				</g>
			</g>
		</g>
		<g class="st2">
			<defs>
				<rect id="SVGID_11_" x="-1.7" y="10.7" width="60.6" height="60.6"/>
			</defs>
			<clipPath id="SVGID_12_">
				<use xlink:href="#SVGID_11_"  style="overflow:visible;"/>
			</clipPath>
			<g class="st8">
				<defs>
					<rect id="SVGID_13_" x="-1.7" y="10.7" width="60.6" height="60.6"/>
				</defs>
				<clipPath id="SVGID_14_">
					<use xlink:href="#SVGID_13_"  style="overflow:visible;"/>
				</clipPath>
				<g class="st9">
					
						<rect x="25.9" y="0.8" transform="matrix(-0.7071 -0.7071 0.7071 -0.7071 19.8719 90.1918)" class="st1" width="5.4" height="80.3"/>
				</g>
			</g>
		</g>
	</g>
	<g>
		<path class="st1" d="M21.1,12.9l-1-3.2v3.2h-1V6.3h1v3.2l1-3.2h1.1l-1.1,3.2l1.1,3.4H21.1z"/>
		<path class="st1" d="M25.7,10.6v2.2h-1v-2.2c0-0.3-0.1-0.4-0.4-0.4h-0.5v2.7h-1V6.3h1.7c0.8,0,1.2,0.4,1.2,1.2v1.2
			c0,0.6-0.2,0.9-0.6,1C25.5,9.9,25.7,10.1,25.7,10.6z M24.3,7.2h-0.5v2.2h0.5c0.3,0,0.4-0.1,0.4-0.4V7.6
			C24.6,7.3,24.5,7.2,24.3,7.2z"/>
		<path class="st1" d="M28.7,6.3v0.9h-1.2v1.9h1.2V10h-1.2v2h1.3v0.9h-2.3V6.3H28.7z"/>
		<path class="st1" d="M30.1,12.9V7.2h-0.9V6.3H32v0.9h-0.9v5.7H30.1z"/>
		<path class="st1" d="M35.4,10.6v1.1c0,0.8-0.4,1.2-1.2,1.2h-0.4c-0.8,0-1.2-0.4-1.2-1.2v-1.4h1v1.4c0,0.3,0.1,0.4,0.4,0.4H34
			c0.3,0,0.4-0.1,0.4-0.4v-0.9c0-0.3-0.1-0.4-0.3-0.5l-1-0.7c-0.5-0.3-0.6-0.6-0.6-1.1V7.5c0-0.8,0.4-1.2,1.2-1.2h0.4
			c0.8,0,1.2,0.4,1.2,1.2v1.2h-1V7.5c0-0.3-0.1-0.4-0.4-0.4h-0.1c-0.3,0-0.4,0.1-0.4,0.4v0.7c0,0.3,0.1,0.4,0.3,0.5l1,0.7
			C35.2,9.8,35.4,10.1,35.4,10.6z"/>
	</g>
	<g>
		<path class="st0" d="M36.9,61.1c-4,0-7.3-3.3-7.3-7.3s3.3-7.3,7.3-7.3c4,0,7.3,3.3,7.3,7.3S41,61.1,36.9,61.1"/>
	</g>
	<g>
		<path class="st1" d="M36.9,46.7c-3.9,0-7.1,3.2-7.1,7.1s3.2,7.1,7.1,7.1c3.9,0,7.1-3.2,7.1-7.1S40.8,46.7,36.9,46.7 M36.9,59.9
			c-3.4,0-6.1-2.7-6.1-6.1c0-3.4,2.7-6.1,6.1-6.1c3.4,0,6.1,2.7,6.1,6.1C43.1,57.1,40.3,59.9,36.9,59.9"/>
	</g>
	<g>
		<path class="st1" d="M41.5,50.5c-1-1.4-2.6-2.3-4.4-2.4v11.2c0.2,0,0.8-0.1,1.3-0.2v-4.9H39l1.3-1.3h-1.9v-3.3
			c1.1,0.4,1.8,1.2,2.2,1.8L41.5,50.5z"/>
	</g>
	<g>
		<path class="st1" d="M42.5,54.3c0-0.6,0-1,0-1.3h-1.6l-1.3,1.3v4.4c0.7-0.4,1.1-0.8,1.3-0.9v-1.3h1l0,0c0.2-0.4,0.4-1,0.5-1.2
			h-1.5v-0.9H42.5z"/>
	</g>
	<g>
		<path class="st1" d="M32.9,52.2l0.4,0.7l0,0l2.8,4.6h0.4v-9.3c-0.4,0-0.9,0.1-1.3,0.3v5.1l-2.3-3.7c-1,1-1.6,2.4-1.6,3.9
			c0,1,0.3,2,0.7,2.8h0c0.9,1.6,2.5,2.7,4.4,2.8v-1.3c-1.3-0.1-2.6-0.9-3.3-2.1C32.1,54.1,32.8,52.5,32.9,52.2"/>
	</g>
	<g>
		<defs>
			<path id="SVGID_15_" d="M3.6,19.4c0,0-2.3,27.1,9.4,29.8C26.9,35.3,35.3,27,35.3,27L34,16.3L3.6,19.4z"/>
		</defs>
		<clipPath id="SVGID_16_">
			<use xlink:href="#SVGID_15_"  style="overflow:visible;"/>
		</clipPath>
		<g class="st10">
			<path class="st11" d="M27.8,32.5c0.5-0.7,1.7-1.6,2.5-1.4c-0.3-1.8,0.5-2.4,1.1-2.7c0,0,0.4,0,0.9,0c0.5,0,0.7-0.3,1-0.9
				c0.3-0.5,0.4-0.7,0.4-0.9c0.2-0.1,0.4-0.1,0.5-0.1c-0.1-0.3-0.4-0.3-0.6-0.3c0-0.1-0.1-0.2-0.2-0.3c0.4-0.4,0.4-0.6,0.3-0.9
				c0.2-0.1,0.4-0.2,0.6-0.2c-0.2-0.3-0.5-0.3-0.7-0.2c-0.1-0.3-0.2-0.3-0.4-0.4c0,0,0-0.2,0-0.4c0.1-0.1,0.3-0.2,0.5-0.3
				c-0.2-0.2-0.5-0.2-0.7-0.1c-0.3-0.2-0.8-0.1-1.1,0c-0.4,0.1-0.5,0.2-0.9,0.9c-0.3,0.7-1.1,2-1.5,2.6c0,0-0.8,0.9-2.7,1.9
				C27.1,29.4,27.7,31.6,27.8,32.5 M33.2,26.2c0,0.4-0.5,0.2-0.7,0.2c-0.2,0-0.5,0-0.5-0.2c0-0.3,0.3-0.5,0.7-0.5
				C33.1,25.8,33.2,26,33.2,26.2 M33.3,25c0,0.2-0.1,0.2-0.3,0.3c-0.2,0.1-0.6,0-1,0.2c-0.4,0.2-0.3-0.3-0.1-0.5
				c0.2-0.3,0.6-0.3,0.9-0.3C33.2,24.6,33.3,24.7,33.3,25 M31.6,24.1c0.2-0.4,0.5-0.4,0.8-0.4c0.3,0,0.4,0.1,0.4,0.3
				c0,0.2-0.2,0.2-0.5,0.2c-0.2,0-0.4,0.1-0.6,0.3C31.6,24.7,31.4,24.4,31.6,24.1"/>
		</g>
		<g class="st10">
			<path class="st11" d="M38.1,55.8c0-0.1,0-0.3-0.1-0.4c0.1-0.2,0.2-0.3,0.3-0.5c0.2,0,0.3,0,0.5,0c-0.1-0.3-0.3-0.4-0.5-0.5
				c-0.1-0.3-0.4-0.4-0.5-0.5c-0.3-0.1-1,0-1.4,0.1c-0.4,0.1-0.5,0.2-0.7,0.4c-0.3,0.2-1.3,0.1-1.7-0.1c-0.4-0.2-1.6-1.9-2.5-4
				c0.1,0,0.3-0.1,0.7-0.1c-0.7-1.7-0.6-4.7-1-5.9s-3.3-2.6-5.2-3.3c-0.1,0.9-0.3,4.4-0.5,6.1c0.5,0.3,1.4,0.9,2.3,1.3
				c0.2,0.6,0.5,2.2-0.3,3.6c1.5,0.8,3.7,1.9,3.7,3.7c1.1,0.3,1.5,0.9,1.6,1.8c0.8,0,1.9,0.2,2.7,0.4c0.8,0.2,1.2,0,1.6-0.4
				c0.1-0.1,0.1-0.1,0.1-0.2c0.2,0.1,0.3,0.2,0.5,0.3c0.1-0.3-0.1-0.6-0.3-0.7c0.1-0.1,0.1-0.2,0.1-0.3c0.1,0,0.3-0.2,0.5-0.5
				c0,0,0-0.1,0-0.1c0.2,0,0.3,0.1,0.5,0.1C38.4,56.1,38.2,55.9,38.1,55.8 M36.4,56.8c-0.1-0.2-0.2-0.3-0.4-0.3
				c-0.2,0-0.5,0-0.4-0.2c0.1-0.2,0.4-0.3,0.8-0.2c0.4,0,0.5,0.2,0.5,0.4C37.1,57,36.5,57,36.4,56.8 M37.4,55.9
				c-0.2,0.2-0.4-0.1-0.6-0.3c-0.1-0.1-0.5-0.2-0.6-0.2c-0.1,0-0.3,0-0.2-0.2c0.1-0.2,0.6-0.2,0.8-0.2c0.2,0,0.5,0.1,0.6,0.3
				C37.6,55.5,37.6,55.8,37.4,55.9 M37.7,54.7c0,0.1-0.2,0.1-0.4,0c-0.2-0.2-0.5-0.1-0.7-0.1c-0.1,0-0.4,0.1-0.3-0.1
				c0-0.2,0.4-0.2,0.7-0.3c0.4,0,0.5,0.1,0.6,0.1C37.7,54.4,37.7,54.6,37.7,54.7"/>
		</g>
		<g class="st10">
			<path class="st11" d="M21.5,19.7c0,0.1,0,0.3,0,0.4c-0.4-0.2-0.8-0.3-1.3-0.3c0.1,0.1,0.8,0.5,1.2,1c0.1-0.1,0.2-0.3,0.6-0.5
				C22.1,20,21.8,19.8,21.5,19.7"/>
		</g>
		<g class="st10">
			<path class="st11" d="M26.5,38.1c-0.7-0.3-1.8-0.6-2.5-0.7c-0.7-0.2-0.8-0.3-1-0.8c4.7,0.9,6.3,1.9,7.2,3.1
				c0.1-1.8,1.5-2,2.1-2.1c0.5,0.2,0.8,0.3,1.2,0.3c0.4,0.1,1-0.4,1.3-0.7c0.2,0,0.4,0,0.6,0.1c0-0.3-0.2-0.5-0.4-0.5
				c0.1-0.2,0.1-0.5,0-0.6c0.3-0.2,0.3-0.5,0.3-0.8c0.2,0,0.4,0,0.6,0.1C36,35.2,35.7,35,35.4,35c0-0.2-0.1-0.3-0.3-0.5
				c0.1-0.2,0.1-0.3,0.1-0.6c0.2-0.1,0.4-0.1,0.6-0.1c-0.1-0.3-0.4-0.4-0.6-0.4c-0.1-0.4-0.6-0.5-1-0.6c-0.4-0.1-0.6,0-1,0.3
				c-0.3,0.3-0.9,1.1-2.1,1.8c-2.9-0.6-5.1-1.6-5.4-1.8c-0.3-0.2-0.5-1.4-0.6-2c-0.1-0.5-0.5-0.6-0.9-0.8s-0.8-0.7-0.8-1.1
				c0,0,1.6,0.9,1.9,1.1c0.3,0.2,0.4,1.5,0.5,2.1c0.2,0.5,0.5,0.4,1.5,0.9c-0.3-1.6-0.9-3.7-1.2-4.5c-0.9-0.9-2-1.5-2.6-1.8
				c-1.3-0.7-1.8-0.8-1.9-1.7c0.8-0.2,1.5,0.2,1.7,0.4c0.2-0.4,0.4-0.9,0.2-1.6c0.7,0.1,1.5,0.5,1.9,0.7c0.4,0.1,1.2,0.3,1.8-1.3
				c-0.8,0.5-1.2,0.7-2,0.4c-0.8-0.3-1.8-0.8-3.6-0.1c0.1-0.7,0.7-1.2,1.6-1.4c0,0.2,0,0.5-0.1,0.6c0.4-0.1,0.8-0.5,0.9-0.7
				c0.3,0,0.6,0,0.8-0.4c0.2-0.4,0.5-1.1,0.2-1.3c-0.4-0.2-2.1-1-2.2-1.1c-0.2-0.1-0.2-0.6-1-0.8c-0.8-0.2-2.9-0.8-5.9-0.1
				c-0.1,0.1-0.1,0.3-0.1,0.4c-0.6,0.4-2.7,2.9-2.6,4.2c0.1,1.4,0.6,5.3,0.6,5.9c0.3-0.1,0.5-0.4,0.5-0.4c0.1,0.2,0.3,0.5,0.4,0.8
				c0.3,0.6,0.9,1.3,1.3,2c0.4,0.7,0.5,2,0.6,3.2c0.1-0.1,0.4-0.5,0.6-0.9c1.6,2.2,1.3,3.7,1.3,4.7c-0.2,0.7-0.6,1.7-1.1,3.1
				c-0.2,0.7-1,2.6-1.4,3.2c-0.4,0.6-1.1,1.5-2.4,1.1c-1.3-0.4-0.8-2.3-0.5-3.2c0.2-0.5,1.1-2.3,1.5-3c0.4-0.7,0.9-2.5-0.5-3.6
				c-1.7-1.3-3.7-2.8-5.4-5c-0.6-0.9-1.3-1.9-0.9-2.9c0.6-1.5,2.2-1.9,2.7,0.2c-0.5,0.5-0.9,1.2-0.5,2.1c0.3,0.6,0.3,1,0.3,1
				c0.2-0.2,0.4-0.5,0.4-0.8c0.5,1.3,1.7,2.5,4.1,2.5c-1.3-0.6-2.3-1.9-2.8-3.3c0.3,0.4,1.3,1.1,1.4,1.3c-0.3-1.1-0.7-2.3-1.8-2.7
				c-0.5-1.3-1.3-2.8-2.8-2.3c-1.5,0.5-1.9,2.1-1.9,2.9c0,0.5,0.2,1.3,1.2,2.5c1.3,1.7,4.6,4.6,5,5c0.1,0.1,0.3,0.3,0.4,0.4
				c-0.7-0.1-2.3-0.7-3.4-1.8c0.4,1.1,0.8,2.4,3.2,3.6c-0.9,0.1-1.8-0.2-2.8-1.2c1.2,2.2,1.3,2.3,2.2,3c-0.3,0.5-0.5,1.1-0.8,1.7
				c-0.7,1.9-0.5,4,1.3,4.8c1.7,0.7,3.3-0.7,4.1-1.7c0.3-0.4,0.7-0.8,0.9-1.1c0.1,0.5,0.2,1.1,0.3,1.8c-0.4,1-2.3,4-5.9,4.6
				c0.3,4-0.1,5.7-0.8,6.7c1,0.9,0.9,1.3,1,2.1c1,0.1,1.3,0.3,2.2,0.8c0.9,0.4,1.5,0.2,1.9,0.1c0,0,0,0,0.1,0
				c0.1,0.1,0.2,0.3,0.3,0.5c0.2-0.2,0.2-0.5,0.1-0.7c0.1-0.1,0.1-0.2,0.2-0.3c0.1,0,0.4-0.1,0.7-0.4c0.2,0.1,0.3,0.2,0.4,0.3
				c0.1-0.3,0-0.5-0.1-0.7c0.1-0.1,0-0.3,0-0.4c0,0,0.1-0.1,0.4-0.3c0.2,0.1,0.3,0.1,0.5,0.3c0.1-0.3-0.1-0.6-0.3-0.7
				c0-0.2-0.1-0.5-0.3-0.7c-0.2-0.3-0.5-0.4-1.2-0.5c-0.7-0.1-0.9,0.1-1.2,0.2C16,57,15.2,56.8,15,56.6c-0.3-0.2,0.2-2.1,0.4-2.7
				c0.2-0.6,0.4-0.7,0.9-0.9c0.5-0.2,1.3-0.6,2.3-1.1c0,0.1,0.1,0.5,0.5,0.9c0.2-1.3,2.7-2.4,4.2-3.2c1.5-0.8,1.3-1.1,1.4-1.7
				c0.1-0.6,0.6-6.5,0.7-7.3C25.4,40.2,26.1,39,26.5,38.1 M33.5,33.4c0.2-0.2,0.7-0.2,0.9-0.1c0.3,0.1,0.3,0.2,0.3,0.5
				c-0.1,0.3-0.4,0.2-0.6,0.1c-0.2-0.1-0.4,0-0.7,0.2C33.2,34.2,33.1,33.8,33.5,33.4 M33.5,34.5c0.5-0.3,0.8-0.2,1.1-0.1
				c0.3,0.1,0.3,0.3,0.3,0.6c-0.1,0.3-0.5,0.2-0.7,0.1c-0.2-0.1-0.4-0.1-0.7,0C33.1,35.2,33.1,34.8,33.5,34.5 M33.3,35.9
				c0.4-0.4,0.9-0.2,1.1,0c0.2,0.1,0.4,0.4,0.3,0.7c-0.2,0.3-0.6-0.2-0.8-0.3C33.7,36.3,33,36.2,33.3,35.9 M17.4,57.1
				c0.1-0.1,0.4-0.1,0.7,0c0.3,0.1,0.4,0.2,0.4,0.3c0,0.1,0,0.2-0.1,0.3c-0.1,0-0.2,0-0.3-0.1c-0.1-0.2-0.4-0.3-0.5-0.3
				C17.5,57.3,17.3,57.2,17.4,57.1 M16.8,57.7c0.2-0.1,0.6,0,0.8,0.1c0.2,0.1,0.4,0.3,0.4,0.5c0,0.2,0,0.4-0.2,0.5
				c-0.3,0.1-0.3-0.3-0.4-0.5c-0.1-0.2-0.4-0.4-0.5-0.4C16.8,57.8,16.6,57.8,16.8,57.7 M15.9,58.5c0.2-0.2,0.5-0.1,0.8,0.1
				c0.3,0.2,0.4,0.3,0.4,0.6c0,0.5-0.5,0.4-0.6,0.1c0-0.2-0.1-0.4-0.3-0.5C16.1,58.7,15.8,58.6,15.9,58.5 M21.2,22.6
				c-0.1-0.4,0.4-1.1,0.9-1.4c-0.4-0.1-1-0.1-1.5,0c-0.6,0.1-0.7,0.3-1,0.7c-0.7,1-0.1,1.7,0.1,2.3c-0.4-0.2-0.6-0.6-0.8-0.9
				c-0.5,0.9,0.5,1.8,1.1,2.4c0.6,0.6,0.5,1.3,0.5,2.3c-0.2,0-0.3-0.3-0.4-0.7c-0.1-0.5,0-0.7-0.3-1c-0.2-0.3-1.5-1.4-2.2-2.1
				c-0.7-0.7-0.6-1.9-0.3-2.4c0.3,0.1-0.2,0.8,0.8,2C17.9,23,18.9,21,20,19.8c-0.9-0.2-2.1-0.1-2.2,0c-0.2,0.1-0.1,0.7-0.1,0.9
				c0,0.2,0,0.4-0.1,0.4c-0.4-0.2-0.6-1.1-0.8-1.7c2.3-0.5,4.2,0,4.8,0.1c0.6,0.1,0.6,0.3,0.7,0.4c0.1,0.1,0.1,0.2,0.4,0.3
				c0.3,0.1,1.5,0.6,2,0.8c0.2,0.1,0.1,0.2,0,0.4c0,0-0.1,0-0.1,0c-0.1-0.1-0.5-0.2-0.5-0.2c0,0.1,0.2,0.4,0.3,0.5
				c0.1,0.1,0.1,0.2,0.1,0.2c0,0-0.1,0.1-0.1,0.1c-0.1,0-0.6,0-1.1,0C22.6,21.9,22,22,21.2,22.6"/>
		</g>
	</g>
</g>
</svg>
