<?xml version="1.0" encoding="utf-8"?>
<!-- Generator: Adobe Illustrator 18.0.0, SVG Export Plug-In . SVG Version: 6.00 Build 0)  -->
<!DOCTYPE svg PUBLIC "-//W3C//DTD SVG 1.1//EN" "http://www.w3.org/Graphics/SVG/1.1/DTD/svg11.dtd">
<svg version="1.1" id="Layer_1" xmlns="http://www.w3.org/2000/svg" xmlns:xlink="http://www.w3.org/1999/xlink" x="0px" y="0px"
	 viewBox="0 0 311.8 311.8" enable-background="new 0 0 311.8 311.8" xml:space="preserve">
<path fill="#FFFFFF" d="M0,155.9C0,69.8,69.8,0,155.9,0s155.9,69.8,155.9,155.9c0,86.1-69.8,155.9-155.9,155.9"/>
<path fill="#FFFFFF" d="M155.9,311.8C69.8,311.8,0,242,0,155.9"/>
<path fill="#001F5B" d="M253.4,86.4c-21-29.4-54.8-48.8-94-50.2v239.4c5,0,16.8-1.2,27.1-4V166.8h13.2l27.1-27.1h-40.3v-71
	c23.9,8.4,39.3,24.8,47.2,37.4L253.4,86.4z"/>
<path fill="#CF0A2C" d="M275.2,166.8c1-11.8,0.2-20.5-0.6-27.1h-34.3l-27.1,27.1V261c15.4-8.5,23.4-16.7,27.1-20.2v-28h21l0.3-0.6
	c5-9.1,8.9-20.6,10.3-26.4h-31.7v-19H275.2z"/>
<path fill="#CF0A2C" d="M69.4,123.2l8.7,14l0,0l60.2,97.4h7.6v-198c-7.5,0.5-19.4,2.8-27.1,5.4v109.1l-49.5-78
	C48.8,94.8,36,124.4,36,155.9c0,21.5,6.4,42.4,15.6,59.2h-0.1c19.5,33.5,53.8,57.3,94.5,60.2v-27.4c-27.8-2.7-55-19.6-69.7-44.9
	C53.8,164.3,67.5,128.7,69.4,123.2"/>
<path fill="#99999A" d="M5.6,155.9c0,79.7,62,144.9,140.4,150v-19.9C78.6,281,25.4,224.7,25.4,155.9c0-72.1,58.4-130.5,130.5-130.5
	c43.2,0,81.4,21,105.2,53.2l14.1-14.2C247.8,28.7,204.6,5.6,155.9,5.6C72.9,5.6,5.6,72.9,5.6,155.9"/>
<polygon fill="#99999A" points="172.2,303.2 169.8,303.3 162.7,294.4 163.2,303.7 160.4,303.9 159.6,289.8 162.3,289.7 169,298.2 
	168.5,289.3 171.3,289.2 "/>
<path fill="#99999A" d="M182.6,301.7c-3.9,0.4-6.9-2.4-7.3-6.6c-0.4-4.2,2-7.5,5.9-7.9c3.9-0.4,6.9,2.4,7.3,6.6
	C188.9,298,186.5,301.3,182.6,301.7 M181.5,289.8c-2.2,0.2-3.5,2.2-3.2,5c0.3,2.7,1.9,4.5,4.1,4.3c2.2-0.2,3.5-2.2,3.3-5
	C185.3,291.4,183.7,289.6,181.5,289.8"/>
<path fill="#99999A" d="M195.3,293.2l1.5,5L194,299l-4.1-13.5l5.5-1.7c2.8-0.9,5.2,0.1,6,2.8c0.7,2.1-0.1,3.9-1.9,4.9l5.1,4.1
	l-3.2,1l-4.9-4L195.3,293.2z M194.6,290.9l2.6-0.8c1.4-0.4,1.9-1.4,1.6-2.5c-0.3-1.1-1.3-1.7-2.7-1.2l-2.6,0.8L194.6,290.9z"/>
<path fill="#99999A" d="M215.1,288.2l-0.8-2l-2.2,0.9l-0.9-2.2l4.6-2l2.3,5.4c-0.7,1.8-2.2,3.1-3.9,3.8c-3.9,1.7-7.6-0.1-9.2-4
	c-1.7-4,0-7.9,3.8-9.5c1.5-0.6,3-0.8,4.2-0.5l1.1,2.7c-1.4-0.4-2.8-0.4-4.3,0.3c-2.3,1-3.2,3.4-2.2,5.9c1.1,2.5,3.2,3.7,5.5,2.7
	C214.1,289.5,214.7,288.9,215.1,288.2"/>
<polygon fill="#99999A" points="224.7,271 225.9,273.2 220,276.4 221.5,279.1 226.8,276.2 228,278.4 222.7,281.3 224.3,284.3 
	230.2,281.1 231.4,283.3 223,287.9 216.3,275.6 "/>
<path fill="#99999A" d="M232.8,278c1.6,0.1,3.2-0.3,4.6-1.2c1.2-0.8,1.8-1.8,1.2-2.7c-0.5-0.8-1.2-0.7-2.3-0.4l-2.1,0.6
	c-2.1,0.6-3.9,0.5-5.2-1.4c-1.5-2.2-0.4-4.6,1.9-6.1c1.4-1,2.8-1.4,4.1-1.5l1.6,2.4c-1.5-0.1-2.9,0.2-4.3,1.1
	c-1,0.7-1.6,1.6-1.1,2.4c0.5,0.7,1.2,0.7,2.2,0.4l2.2-0.6c2.4-0.7,4-0.2,5.2,1.5c1.6,2.3,0.4,4.8-2.1,6.4c-1.6,1.1-3.2,1.5-4.4,1.6
	L232.8,278z"/>
<polygon fill="#99999A" points="251.6,268.9 242.2,258.4 249.2,252.2 250.9,254.1 246.1,258.4 248.5,261 252.9,257 254.6,258.9 
	250.2,262.9 253.8,266.9 "/>
<path fill="#99999A" d="M265.6,255.5c-2.6,2.9-6.7,2.9-9.8,0c-3.1-2.8-3.5-6.9-0.9-9.8c2.6-2.9,6.7-2.9,9.9-0.1
	C267.9,248.5,268.3,252.6,265.6,255.5 M256.8,247.5c-1.5,1.6-1.1,4,1,5.8c2,1.8,4.4,2.1,5.9,0.4c1.5-1.7,1.1-4-0.9-5.9
	C260.7,246,258.3,245.9,256.8,247.5"/>
<polygon fill="#99999A" points="260.5,239.7 267.6,230.1 269.7,231.6 267,235.2 276.3,242 274.5,244.4 265.3,237.6 262.6,241.3 "/>
<path fill="#99999A" d="M283,224c2.2,1.3,2.5,3.6,1,6.1l-3,5l-12.1-7.1l2.7-4.6c1.5-2.5,3.5-3.4,5.7-2.2c1.3,0.8,1.8,2,1.6,3.1
	C280,223.4,281.6,223.2,283,224 M276.5,226.4c0.7-1.2,0.6-2.1-0.4-2.7c-1-0.6-1.8-0.2-2.5,1l-1.2,2.1l2.8,1.7L276.5,226.4z
	 M280.3,231.4l1.4-2.4c0.7-1.2,0.5-2.2-0.5-2.7c-0.9-0.6-1.9-0.3-2.6,0.9l-1.4,2.4L280.3,231.4z"/>
<path fill="#99999A" d="M278.4,210l15,0.9l-1.2,2.7l-3.6-0.3l-2.2,4.8l2.6,2.5l-1.2,2.7l-10.6-10.7L278.4,210z M284.6,216.3l1.4-3.1
	l-5-0.4L284.6,216.3z"/>
<polygon fill="#99999A" points="281.4,202.9 282.3,200.1 293.2,203.8 295.3,197.6 297.8,198.4 294.8,207.4 "/>
<polygon fill="#99999A" points="285.1,191.4 285.8,188.5 297,191.2 298.5,184.8 301,185.4 298.8,194.6 "/>
<polygon fill="#99999A" points="301.7,181.6 287.8,179.6 289.1,170.3 291.7,170.7 290.7,177.1 294.3,177.6 295.1,171.7 297.6,172.1 
	296.8,178 302.1,178.8 "/>
<path fill="#99999A" d="M304,162.4c-0.2,3.9-3.4,6.5-7.5,6.3c-4.2-0.2-7.1-3-7-7c0.2-3.9,3.3-6.5,7.5-6.3
	C301.2,155.6,304.1,158.5,304,162.4 M292.1,161.9c-0.1,2.2,1.7,3.7,4.5,3.9c2.7,0.1,4.7-1.2,4.8-3.5c0.1-2.2-1.7-3.8-4.5-3.9
	C294.1,158.2,292.2,159.6,292.1,161.9"/>
<path fill="#99999A" d="M298.5,148.7l5.2-0.3l0.2,2.9l-14,0.9l-0.4-5.8c-0.2-3,1.3-5,4.1-5.2c2.2-0.1,3.7,1,4.3,2.9l5.2-4.1l0.2,3.3
	l-5,3.8L298.5,148.7z M296.1,148.9l-0.2-2.7c-0.1-1.5-0.9-2.2-2.1-2.1c-1.2,0.1-1.9,0.9-1.8,2.3l0.2,2.7L296.1,148.9z"/>
<path fill="#99999A" d="M297,126.5c2.6-0.4,4.2,1.1,4.7,4l1,5.8l-13.9,2.3l-0.9-5.3c-0.5-2.9,0.5-4.9,3-5.3c1.5-0.3,2.7,0.4,3.2,1.3
	C294.3,127.9,295.4,126.7,297,126.5 M293.6,132.5c-0.2-1.4-0.9-2-2-1.8c-1.1,0.2-1.5,1-1.3,2.4l0.4,2.4l3.3-0.5L293.6,132.5z
	 M299.7,133.8l-0.5-2.7c-0.2-1.4-1-2-2.1-1.8c-1.1,0.2-1.6,1-1.4,2.4l0.5,2.7L299.7,133.8z"/>
<path fill="#99999A" d="M294.5,123.2l-8.1,2.3l-0.8-2.8l7.8-2.2c2.3-0.6,3.1-2,2.6-3.8c-0.5-1.8-1.9-2.5-4.2-1.8l-7.8,2.2l-0.8-2.8
	l8.1-2.3c3.7-1,6.3,0.6,7.2,4C299.6,119.4,298.3,122.2,294.5,123.2"/>
<polygon fill="#99999A" points="290.8,94.8 291.7,96.9 285.5,106.6 294.2,103.1 295.2,105.7 282.2,111 281.2,108.4 287.1,99.3 
	278.8,102.7 277.8,100.1 "/>
<path fill="#99999A" d="M276.2,96.9l-2.4-4.4c-2-3.7-0.9-7.4,2.9-9.5c3.8-2,7.5-1,9.5,2.7l2.4,4.4L276.2,96.9z M284,87.1
	c-1.3-2.4-3.5-2.8-5.9-1.5c-2.4,1.3-3.2,3.4-1.9,5.8l0.9,1.7l7.8-4.3L284,87.1z"/>
<polygon fill="#99999A" points="223,130 219.7,130 219.7,117.9 216,119.7 216,116.5 220.9,114.1 223,114.1 "/>
<path fill="#99999A" d="M236.8,119.5c0,1.4-0.4,2.8-1.6,4.8l-3.3,5.7h-3.5l2.9-5.1c-0.2,0.1-0.5,0.1-0.8,0.1
	c-3.1-0.1-5.2-2.5-5.2-5.5c0-3.2,2.4-5.7,5.7-5.7C234.4,113.8,236.8,116.3,236.8,119.5 M231,122.3c1.6,0,2.7-1.2,2.7-2.8
	c0-1.6-1.1-2.8-2.7-2.8c-1.6,0-2.8,1.2-2.8,2.8C228.3,121.1,229.4,122.3,231,122.3"/>
<path fill="#99999A" d="M238.5,122.1c0-4.8,2.5-8.2,6.3-8.2c3.7,0,6.3,3.4,6.3,8.2c0,4.9-2.5,8.2-6.3,8.2
	C241,130.3,238.5,126.9,238.5,122.1 M241.7,122.1c0,3,0.9,5.3,3,5.3c2.1,0,3-2.3,3-5.3c0-3-0.9-5.3-3-5.3
	C242.6,116.8,241.7,119.1,241.7,122.1"/>
<path fill="#99999A" d="M262.9,127.2v2.8h-11.2v-0.1l4.6-6.1c1.5-1.9,2.5-3.2,2.5-4.9c0-1.2-0.8-2.1-2.3-2.1c-1.7,0-3.4,1.1-4.5,2.1
	v-3.2c1.1-1.1,3-1.9,5.1-1.9c3.1,0,5.1,1.8,5.1,4.7c0,2.1-1.3,4-2.9,6l-1.9,2.5L262.9,127.2z"/>
</svg>
