<?xml version="1.0" encoding="UTF-8" standalone="no"?>
<svg width="20px" height="20px" viewBox="0 0 20 20" version="1.1" xmlns="http://www.w3.org/2000/svg" xmlns:xlink="http://www.w3.org/1999/xlink" xmlns:sketch="http://www.bohemiancoding.com/sketch/ns">
    <!-- Generator: Sketch 3.3.3 (12081) - http://www.bohemiancoding.com/sketch -->
    <title>Magnifier</title>
    <desc>Created with Sketch.</desc>
    <defs></defs>
    <g id="Icons" stroke="none" stroke-width="1" fill="none" fill-rule="evenodd" sketch:type="MSPage">
        <g id="Icon-Set-Example" sketch:type="MSArtboardGroup" transform="translate(-99.000000, -75.000000)" fill="#00205B">
            <g id="Search-24" sketch:type="MSLayerGroup" transform="translate(96.000000, 72.000000)">
                <path d="M13.7577259,15.9069306 L20.3360766,22.4852814 L22.4852814,20.3360766 L15.9069306,13.7577259 C16.5989976,12.6721016 17,11.3828804 17,10 C17,6.13400675 13.8659932,3 10,3 C6.13400675,3 3,6.13400675 3,10 C3,13.8659932 6.13400675,17 10,17 C11.3828804,17 12.6721016,16.5989976 13.7577259,15.9069306 L13.7577259,15.9069306 Z M10,15 C7.23857625,15 5,12.7614237 5,10 C5,7.23857625 7.23857625,5 10,5 C12.7614237,5 15,7.23857625 15,10 C15,12.7614237 12.7614237,15 10,15 Z" id="Magnifier" sketch:type="MSShapeGroup"></path>
            </g>
        </g>
    </g>
</svg>