<?xml version="1.0" encoding="utf-8"?>
<!-- Generator: Adobe Illustrator 19.1.0, SVG Export Plug-In . SVG Version: 6.00 Build 0)  -->
<svg version="1.1" id="Layer_1" xmlns="http://www.w3.org/2000/svg" xmlns:xlink="http://www.w3.org/1999/xlink" x="0px" y="0px"
	 viewBox="0 0 48 45.7" style="enable-background:new 0 0 48 45.7;" xml:space="preserve">
<style type="text/css">
	.st0{fill:#FFFFFF;}
</style>
<g>
	<path class="st0" d="M24,11.3l2.9,5.9c0.7,1.5,2.1,2.5,3.8,2.7l6.6,1l-4.7,4.6c-1.2,1.1-1.7,2.8-1.4,4.4l1.1,6.5l-5.9-3.1
		c-0.7-0.4-1.5-0.6-2.3-0.6s-1.6,0.2-2.3,0.6l-5.9,3.1l1.1-6.5c0.3-1.6-0.3-3.3-1.4-4.4l-4.7-4.6l6.6-1c1.6-0.2,3-1.3,3.8-2.7
		L24,11.3 M24,0l-7.4,15L0,17.4l12,11.7L9.2,45.7L24,37.9l14.8,7.8L36,29.1l12-11.7L31.4,15L24,0L24,0z"/>
</g>
</svg>
